<?xml version="1.0" encoding="iso-8859-1"?>
<!-- Generator: Adobe Illustrator 16.0.0, SVG Export Plug-In . SVG Version: 6.00 Build 0)  -->
<!DOCTYPE svg PUBLIC "-//W3C//DTD SVG 1.1//EN" "http://www.w3.org/Graphics/SVG/1.1/DTD/svg11.dtd">
<svg version="1.1" id="Capa_1" xmlns="http://www.w3.org/2000/svg" xmlns:xlink="http://www.w3.org/1999/xlink" x="0px" y="0px"
	 width="340.087px" height="340.087px" viewBox="0 0 340.087 340.087" style="enable-background:new 0 0 340.087 340.087;"
	 xml:space="preserve">
<g>
	<path d="M281.564,103.828c8.263-10.46,32.738-44.904,21.222-73.163c-7.152-17.534-25.539-27.766-54.656-30.42
		c-21.497-2.03-43.258,8.923-64.359,19.438c-35.17,17.521-58.036,26.763-78.846,7.332c-5.38-5.026-13.817-4.738-18.846,0.642
		c-5.018,5.375-4.741,13.811,0.639,18.831c35.836,33.483,76.375,13.277,108.948-2.948c18.585-9.265,36.119-18.111,50.044-16.748
		c10.358,0.937,28.313,3.999,32.372,13.919c4.756,11.596-6.797,32.282-15.528,44.1L249.342,71.6c-5.206-5.206-13.643-5.206-18.854,0
		l-18.555,18.567c-15.36-6.191-31.466-9.332-48.033-9.332c-71.475,0-129.625,58.151-129.625,129.626
		c0,71.475,58.15,129.626,129.625,129.626s129.625-58.151,129.625-129.626c0-19.636-4.54-39.062-13.198-56.745l16.135-16.135
		c5.218-5.206,5.218-13.643,0-18.855L281.564,103.828z"/>
</g>
<g>
</g>
<g>
</g>
<g>
</g>
<g>
</g>
<g>
</g>
<g>
</g>
<g>
</g>
<g>
</g>
<g>
</g>
<g>
</g>
<g>
</g>
<g>
</g>
<g>
</g>
<g>
</g>
<g>
</g>
</svg>
